<svg width="27" height="20" viewBox="0 0 27 20" fill="none" xmlns="http://www.w3.org/2000/svg">
<path d="M2.63047 9.50748C4.07266 9.50748 5.25078 8.32541 5.25078 6.85802C5.25078 5.4212 4.07266 4.22894 2.63047 4.22894C1.17813 4.22894 0 5.41101 0 6.85802C0 8.32541 1.18828 9.50748 2.63047 9.50748ZM2.63047 7.9178C2.06172 7.9178 1.58437 7.43886 1.58437 6.85802C1.58437 6.27717 2.06172 5.81862 2.63047 5.81862C3.18906 5.81862 3.66641 6.29756 3.66641 6.85802C3.66641 7.43886 3.20937 7.9178 2.63047 7.9178ZM13.0305 5.26834C14.4726 5.26834 15.6508 4.08628 15.6508 2.62908C15.6508 1.19225 14.4726 0 13.0305 0C11.568 0 10.4 1.18207 10.4 2.62908C10.4 4.08628 11.5781 5.26834 13.0305 5.26834ZM13.0305 3.67867C12.4617 3.67867 11.9844 3.19973 11.9844 2.62908C11.9844 2.04823 12.4617 1.58967 13.0305 1.58967C13.5891 1.58967 14.0664 2.06862 14.0664 2.62908C14.0664 3.19973 13.6094 3.67867 13.0305 3.67867ZM23.4203 9.50748C24.8625 9.50748 26.0508 8.32541 26.0508 6.85802C26.0508 5.41101 24.8726 4.22894 23.4203 4.22894C21.9781 4.22894 20.8 5.4212 20.8 6.85802C20.8 8.32541 21.9781 9.50748 23.4203 9.50748ZM23.4203 7.9178C22.8414 7.9178 22.3844 7.43886 22.3844 6.85802C22.3844 6.29756 22.8617 5.81862 23.4203 5.81862C23.9891 5.81862 24.4664 6.27717 24.4664 6.85802C24.4664 7.43886 23.9891 7.9178 23.4203 7.9178ZM3.83906 8.83496L7.05859 10.822C7.70859 11.2194 8.78514 11.2398 9.45551 10.3329L13.2945 5.16644L11.8422 4.54484L8.33828 9.26287C8.15547 9.52783 7.9625 9.57878 7.61719 9.36478L4.65156 7.53057L3.83906 8.83496ZM22.2117 8.8247L21.3992 7.52038L18.4539 9.33426C18.0883 9.56861 17.8851 9.4973 17.682 9.22217L14.2086 4.52445L12.7664 5.15625L16.6156 10.343C17.2656 11.2194 18.332 11.2194 18.9211 10.8526L22.2117 8.8247ZM5.11875 16.3043H20.9422V14.7657H5.11875V16.3043ZM2.57969 9.05913L4.65156 17.5271C5.0375 19.127 5.88047 19.9321 7.55625 19.9321H18.4945C20.1805 19.9321 21.0133 19.127 21.4094 17.5271L23.4813 9.05913L22.0492 8.40693L19.8859 17.3336C19.7133 18.057 19.2766 18.3933 18.5149 18.3933H7.54609C6.78437 18.3933 6.34766 18.057 6.175 17.3336L4.00156 8.40693L2.57969 9.05913Z" fill="#CF9D52"/>
</svg>
