<svg width="23" height="22" viewBox="0 0 23 22" fill="none" xmlns="http://www.w3.org/2000/svg">
<path d="M5.48803 22H17.5119C19.6627 22 20.8526 20.9608 20.8526 18.9771V12.5325H20.9326C21.9393 12.333 22.5 11.5878 22.5 10.5172V7.75668C22.5 6.47615 21.722 5.66793 20.3263 5.66793H18.0153C18.6217 5.11164 18.9763 4.35592 18.9763 3.48473C18.9763 1.44848 17.2259 0 15.0065 0C13.4049 0 12.0777 0.808206 11.4942 2.2147C10.9108 0.808206 9.59515 0 7.98204 0C5.77404 0 4.01222 1.44848 4.01222 3.48473C4.01222 4.35592 4.36687 5.11164 4.98465 5.66793H2.67368C1.33515 5.66793 0.5 6.47615 0.5 7.75668V10.5172C0.5 11.5878 1.04914 12.333 2.0559 12.5325H2.13598V18.9771C2.13598 20.9608 3.32579 22 5.48803 22ZM10.4761 20.4256H5.46515C4.51559 20.4256 3.97789 19.9322 3.97789 19.061V12.6059H10.4761V20.4256ZM12.5125 20.4256V12.6059H19.0106V19.061C19.0106 19.9322 18.473 20.4256 17.5234 20.4256H12.5125ZM10.4761 11.021H3.14274C2.57072 11.021 2.34191 10.8006 2.34191 10.2758V7.9876C2.34191 7.46278 2.57072 7.25287 3.14274 7.25287H10.4761V11.021ZM12.5125 11.021V7.25287H19.8686C20.4407 7.25287 20.658 7.46278 20.658 7.9876V10.2758C20.658 10.8006 20.4407 11.021 19.8686 11.021H12.5125ZM10.5562 5.66793H8.77144C6.97528 5.66793 5.92277 4.73378 5.92277 3.5792C5.92277 2.42462 6.838 1.75286 8.09645 1.75286C9.45786 1.75286 10.5562 2.69752 10.5562 4.25095V5.66793ZM12.4324 5.66793V4.25095C12.4324 2.69752 13.5307 1.75286 14.8921 1.75286C16.1505 1.75286 17.0658 2.42462 17.0658 3.5792C17.0658 4.73378 16.0246 5.66793 14.2171 5.66793H12.4324Z" fill="white"/>
</svg>
