<svg width="20" height="20" viewBox="0 0 20 20" fill="none" xmlns="http://www.w3.org/2000/svg">
<path d="M9.99489 20C15.4588 20 20 15.4667 20 10C20 4.53333 15.4588 0 9.98457 0C4.52071 0 0 4.52307 0 10C0 15.4667 4.53103 20 9.99489 20ZM9.99489 18.2564C5.42285 18.2564 1.75294 14.5846 1.75294 10C1.75294 5.40512 5.41262 1.73333 9.98457 1.73333C14.5668 1.73333 18.247 5.40512 18.2573 10C18.2675 14.5743 14.5874 18.2564 9.99489 18.2564ZM9.98457 11.8462C10.4766 11.8462 10.7534 11.5693 10.7637 11.0359L10.9174 5.62051C10.9277 5.09743 10.5176 4.70769 9.97433 4.70769C9.42078 4.70769 9.03125 5.08717 9.04149 5.61025L9.1748 11.0359C9.18503 11.5589 9.47204 11.8462 9.98457 11.8462ZM9.98457 15.1795C10.5689 15.1795 11.0814 14.7077 11.0814 14.1128C11.0814 13.5179 10.5791 13.0461 9.98457 13.0461C9.37976 13.0461 8.87747 13.5282 8.87747 14.1128C8.87747 14.6974 9.38999 15.1795 9.98457 15.1795Z" fill="#BBBBBB"/>
</svg>
