<svg width="1665" height="3444" viewBox="0 0 1665 3444" fill="none" xmlns="http://www.w3.org/2000/svg">
<path d="M338.501 60.9998C359.168 37.9998 473.001 -0.400064 689.002 1.99994C905.002 4.39994 923.001 56.5 918 125C913.142 167.268 918.999 162 929.5 192C942.978 230.5 969.8 266 1021 266C1085 266 1154.03 195.556 1245.5 200.5C1319.5 204.5 1359.76 200.235 1380.02 220.499C1407.5 248 1440.5 250.999 1440.5 320.499C1440.5 365.999 1514.5 413.499 1472.5 472.999C1431.51 531.075 1319.73 475.231 1277.5 478C1247 480 1250.5 485 1137.5 512.5C1007.3 544.186 986.5 469 930 480C905.004 484.867 892 456.5 822.002 499.999C743.502 562.499 888.43 691.016 848.002 732.556C826.152 755.008 785.003 747.982 774.002 700.499C763.5 665.248 746.502 650.499 726.059 645.589C673.782 633.031 586.038 627.096 519.529 645.589C453.019 664.082 391 683 406.012 770.042C418.11 840.19 522.5 874.41 594 858C685.5 837 692.5 798.5 687.5 762.5C678.249 695.891 559.653 717.529 473 732.556C358 752.5 304.033 771.706 262.5 792C233.859 805.995 -7.69979 903.9 1.50023 1157.5C13.0003 1474.5 447.998 1430.5 736.5 1368.5C1025 1306.5 1387.48 1001.05 1408 969C1473 867.5 1371.5 821 1257.5 858C1159.16 889.919 1141.49 977.5 1208.5 1015C1275.51 1052.5 1466.5 1082 1571.5 1191.5C1662.66 1286.57 1715.5 1458 1585.5 1602C1423 1782 996 1851 922.001 1871C848.002 1891 200.688 1948.4 70.5 2213C-21.9995 2401 -16.9995 2606.5 208.001 2773.5C442.553 2947.59 1098 2877.5 1286.5 2748.5C1475 2619.5 1453.5 2243.5 1417.5 2162.5C1393.94 2109.5 1316.37 2014.19 1200.5 2092C1098.5 2160.5 1188.5 2287.5 1268 2315C1347.5 2342.5 1661.5 2484.5 1661.5 2771.5C1661.83 2898.33 1662.92 3159.76 1532.5 3274.5C1362 3424.5 1197 3484 362 3412" stroke="#EBDCC6" stroke-width="2"/>
<circle cx="337" cy="62" r="7" fill="#EBDCC6"/>
<circle cx="361" cy="3412" r="7" fill="#EBDCC6"/>
</svg>
