<svg width="20" height="21" viewBox="0 0 20 21" fill="none" xmlns="http://www.w3.org/2000/svg">
<path fill-rule="evenodd" clip-rule="evenodd" d="M10 20.5C15.5228 20.5 20 16.0228 20 10.5C20 4.97715 15.5228 0.5 10 0.5C4.47715 0.5 0 4.97715 0 10.5C0 12.1494 0.39935 13.7056 1.10664 15.0771C1.22536 15.3073 1.26297 15.5723 1.19866 15.8232L0.408592 18.9058C0.222385 19.6323 0.872557 20.2977 1.60317 20.1283L4.85463 19.3743C5.09315 19.319 5.34274 19.355 5.56209 19.4638C6.89931 20.1271 8.40611 20.5 10 20.5ZM10 18.9615C14.6732 18.9615 18.4615 15.1732 18.4615 10.5C18.4615 5.82682 14.6732 2.03846 10 2.03846C5.32682 2.03846 1.53846 5.82682 1.53846 10.5C1.53846 12.1375 2.00358 13.6663 2.80891 14.9615C2.96483 15.2123 3.02167 15.5149 2.94558 15.8002L2.74483 16.553C2.54854 17.2891 3.21454 17.9656 3.95361 17.7808L4.76146 17.5789C5.04021 17.5092 5.33377 17.5656 5.57862 17.7159C6.86529 18.506 8.37944 18.9615 10 18.9615Z" fill="white"/>
<path d="M7.54094 5.95441C7.3135 5.45696 6.9646 5.501 6.61213 5.501C5.98221 5.501 5 6.32264 5 7.85179C5 9.10502 5.50712 10.4769 7.21597 12.529C8.86513 14.5095 11.032 15.534 12.831 15.4991C14.6299 15.4643 15 13.7785 15 13.2092C15 12.9569 14.8562 12.831 14.7571 12.7968C14.1441 12.4764 13.0135 11.8795 12.7562 11.7673C12.499 11.6552 12.3646 11.8069 12.2811 11.8894C12.0478 12.1315 11.5854 12.845 11.427 13.0055C11.2687 13.166 11.0326 13.0847 10.9344 13.0241C10.5729 12.8661 9.59274 12.3913 8.81145 11.5666C7.8452 10.5466 7.78849 10.1957 7.60645 9.88332C7.46081 9.63342 7.56768 9.48009 7.62101 9.41309C7.82919 9.15151 8.11665 8.74766 8.24556 8.54697C8.37447 8.34627 8.27214 8.04157 8.21073 7.8518C7.94663 7.03561 7.72289 6.35238 7.54094 5.95441Z" fill="white"/>
</svg>
