<svg width="60" height="60" viewBox="0 0 60 60" fill="none" xmlns="http://www.w3.org/2000/svg">
<rect width="60" height="60" fill="#CF9D52"/>
<path d="M26.9432 37.6809C27.4205 37.6809 27.7955 37.1611 27.7955 36.5344C27.7955 35.9076 27.4205 35.3878 26.9432 35.3878C26.4659 35.3878 26.0909 35.9076 26.0909 36.5344C26.0909 37.1611 26.4659 37.6809 26.9432 37.6809Z" fill="white"/>
<path d="M32.0568 37.6809C32.5341 37.6809 32.9091 37.1611 32.9091 36.5344C32.9091 35.9076 32.5341 35.3878 32.0568 35.3878C31.5795 35.3878 31.2045 35.9076 31.2045 36.5344C31.2045 37.1611 31.5795 37.6809 32.0568 37.6809Z" fill="white"/>
<path fill-rule="evenodd" clip-rule="evenodd" d="M18.6913 25.1989C19.514 27.9726 20.7027 30.3733 21.6591 31.8896C21.4643 32.2237 21.2899 32.5713 21.1375 32.9307C18.6718 34.2939 17 36.937 17 39.974C17 44.4066 20.5614 48 24.9545 48C26.6446 48 28.2116 47.4682 29.5 46.5614C30.7884 47.4682 32.3554 48 34.0455 48C38.4386 48 42 44.4066 42 39.974C42 36.937 40.3282 34.2939 37.8625 32.9307C37.7101 32.5713 37.5357 32.2237 37.3409 31.8896C38.2973 30.3733 39.486 27.9726 40.3087 25.1989C41.1495 22.3638 41.6341 19.0508 41.0207 15.8566C40.6055 13.695 38.3295 12.3003 36.2203 13.3653C33.7345 14.6205 31.0064 17.2161 29.5 21.7951C27.9936 17.2161 25.2655 14.6205 22.7797 13.3653C20.6705 12.3003 18.3945 13.695 17.9793 15.8566C17.3659 19.0508 17.8505 22.3638 18.6913 25.1989ZM21.7625 15.416C21.1544 15.1089 20.3734 15.4447 20.2105 16.2929C19.6914 18.996 20.0887 21.9116 20.8687 24.5415C21.5094 26.7017 22.3907 28.6097 23.1595 29.961C24.5263 28.6186 26.3102 27.7065 28.2965 27.4414C27.6952 20.0697 24.3244 16.7095 21.7625 15.416ZM30.7035 27.4414C32.6898 27.7065 34.4737 28.6186 35.8405 29.961C36.6093 28.6097 37.4906 26.7017 38.1313 24.5415C38.9113 21.9116 39.3086 18.996 38.7895 16.2929C38.6266 15.4447 37.8456 15.1089 37.2374 15.416C34.6756 16.7095 31.3048 20.0697 30.7035 27.4414ZM38.5909 36.5338C37.9472 35.6693 37.0669 34.9944 36.047 34.607C35.221 31.7457 32.6025 29.6549 29.5 29.6549C26.3975 29.6549 23.779 31.7457 22.953 34.607C21.9331 34.9945 21.0528 35.6693 20.4091 36.5338C19.6956 37.492 19.2727 38.6832 19.2727 39.974C19.2727 43.1402 21.8166 45.7069 24.9545 45.7069C25.672 45.7069 26.3584 45.5727 26.9904 45.3279C27.5681 45.1041 28.1004 44.7879 28.5695 44.3972C27.7721 43.8699 27.2273 42.8062 27.2273 42.3151C27.2273 41.6462 28.25 41.1207 29.5 41.1207C30.75 41.1207 31.7727 41.6462 31.7727 42.3151C31.7727 42.8062 31.2279 43.8699 30.4305 44.3972C30.8996 44.7879 31.4318 45.1041 32.0095 45.3279C32.6415 45.5727 33.328 45.7069 34.0455 45.7069C37.1834 45.7069 39.7273 43.1402 39.7273 39.974C39.7273 38.6831 39.3044 37.4921 38.5909 36.5338Z" fill="white"/>
</svg>
